<?xml version="1.0" encoding="iso-8859-1"?>
<!-- Generator: Adobe Illustrator 19.0.0, SVG Export Plug-In . SVG Version: 6.00 Build 0)  -->
<svg version="1.1" id="Capa_1" xmlns="http://www.w3.org/2000/svg" xmlns:xlink="http://www.w3.org/1999/xlink" x="0px" y="0px"
	 viewBox="0 0 512.001 512.001" style="enable-background:new 0 0 512.001 512.001;" xml:space="preserve">
<linearGradient id="SVGID_1_" gradientUnits="userSpaceOnUse" x1="23.0007" y1="257.9998" x2="489.0007" y2="257.9998" gradientTransform="matrix(1 0 0 -1 0 514.0005)">
	<stop  offset="0" style="stop-color:#80D8FF"/>
	<stop  offset="1" style="stop-color:#EA80FC"/>
</linearGradient>
<path style="fill:url(#SVGID_1_);" d="M447.717,97.795L297.208,10.994c-25.417-14.659-56.997-14.659-82.414,0L64.285,97.795
	c-25.465,14.686-41.284,42.072-41.284,71.472v173.467c0,29.399,15.819,56.786,41.284,71.472l150.509,86.801
	c25.412,14.657,56.993,14.661,82.414,0l150.509-86.801c25.465-14.687,41.284-42.073,41.284-71.473V169.267
	C489.001,139.867,473.182,112.481,447.717,97.795z M449.001,342.733c0,15.144-8.148,29.25-21.266,36.815l-150.509,86.801
	c-13.093,7.55-29.358,7.55-42.451,0l-150.508-86.8c-13.118-7.565-21.266-21.672-21.266-36.816V169.267
	c0-15.144,8.148-29.25,21.266-36.815l150.509-86.801c13.095-7.551,29.358-7.55,42.451,0l150.509,86.801
	c13.117,7.564,21.265,21.671,21.265,36.815V342.733z M275,370.076c0,14.294-11.852,26.844-26.84,26.844
	c-14.988,0-26.491-12.551-26.491-26.844c0-14.642,11.852-26.844,26.491-26.844S275,355.434,275,370.076z M326.937,197.508
	c0,32.77-29.628,56.477-39.04,63.798c-19.171,14.99-19.52,25.449-19.52,43.578c0,6.624-3.486,14.293-20.565,14.293
	c-14.292,0-19.171-5.229-19.171-23.357c0-29.981,13.246-44.275,23.354-52.991c11.503-9.761,31.023-20.568,31.023-39.394
	c0-16.036-13.943-23.707-31.372-23.707c-35.554,0-27.886,26.844-46.708,26.844c-9.412,0-20.914-6.275-20.914-19.872
	c0-18.825,21.611-46.715,68.668-46.715C297.308,139.986,326.937,164.738,326.937,197.508z"/>
<g>
</g>
<g>
</g>
<g>
</g>
<g>
</g>
<g>
</g>
<g>
</g>
<g>
</g>
<g>
</g>
<g>
</g>
<g>
</g>
<g>
</g>
<g>
</g>
<g>
</g>
<g>
</g>
<g>
</g>
</svg>
