<?xml version="1.0" encoding="iso-8859-1"?>
<!-- Generator: Adobe Illustrator 19.0.0, SVG Export Plug-In . SVG Version: 6.00 Build 0)  -->
<svg version="1.1" id="Capa_1" xmlns="http://www.w3.org/2000/svg" xmlns:xlink="http://www.w3.org/1999/xlink" x="0px" y="0px"
	 viewBox="0 0 512.001 512.001" style="enable-background:new 0 0 512.001 512.001;" xml:space="preserve">
<linearGradient id="SVGID_1_" gradientUnits="userSpaceOnUse" x1="0.9999" y1="257.9995" x2="511.0011" y2="257.9995" gradientTransform="matrix(1 0 0 -1 0 514)">
	<stop  offset="0" style="stop-color:#80D8FF"/>
	<stop  offset="1" style="stop-color:#EA80FC"/>
</linearGradient>
<path style="fill:url(#SVGID_1_);" d="M256,176c-44.112,0-80,35.888-80,80s35.888,80,80,80s80-35.888,80-80S300.112,176,256,176z
	 M256,296c-22.056,0-40-17.944-40-40s17.944-40,40-40s40,17.944,40,40S278.056,296,256,296z M465.928,271.494
	c0.762-10.345,0.763-20.63,0-30.988l38.675-35.883c6.847-6.353,8.385-16.598,3.706-24.681L448.151,76.019
	c-4.664-8.055-14.264-11.832-23.166-9.104l-50.535,15.476c-8.613-5.86-17.642-11.071-26.993-15.581l-11.809-51.296
	C333.559,6.434,325.475,0,316.158,0H195.842c-9.317,0-17.4,6.434-19.49,15.514L164.543,66.81c-9.352,4.51-18.38,9.721-26.993,15.581
	L87.015,66.915c-8.903-2.728-18.503,1.049-23.166,9.104L3.691,179.942c-4.679,8.083-3.141,18.328,3.706,24.681l38.675,35.883
	c-0.762,10.345-0.763,20.63,0,30.988L7.397,307.377c-6.847,6.353-8.385,16.598-3.706,24.681l60.158,103.924
	c4.663,8.055,14.264,11.831,23.166,9.104l50.535-15.476c8.613,5.86,17.642,11.071,26.993,15.581l11.809,51.296
	c2.09,9.08,10.173,15.514,19.49,15.514h120.316c9.317,0,17.4-6.434,19.49-15.514l11.809-51.296
	c9.352-4.51,18.38-9.721,26.993-15.581l50.535,15.476c8.902,2.726,18.503-1.049,23.166-9.104l60.158-103.924
	c4.679-8.083,3.141-18.328-3.706-24.681L465.928,271.494z M425.21,235.031c1.719,13.962,1.719,27.971,0,41.938
	c-0.786,6.374,1.538,12.738,6.246,17.106l34.234,31.763l-44.194,76.346l-44.792-13.717c-6.132-1.88-12.788-0.704-17.905,3.16
	c-11.25,8.491-23.493,15.557-36.389,21c-5.915,2.497-10.272,7.682-11.713,13.939L300.24,472h-88.478l-10.459-45.434
	c-1.44-6.258-5.798-11.442-11.713-13.939c-12.895-5.443-25.139-12.509-36.389-21c-5.117-3.863-11.775-5.04-17.905-3.16
	l-44.792,13.717L46.31,325.838l34.234-31.763c4.708-4.368,7.032-10.732,6.246-17.106c-1.719-13.962-1.719-27.971,0-41.938
	c0.786-6.374-1.538-12.738-6.246-17.106L46.31,186.162l44.194-76.346l44.792,13.717c6.129,1.878,12.787,0.703,17.905-3.16
	c11.25-8.491,23.493-15.557,36.389-21c5.915-2.497,10.272-7.682,11.713-13.939L211.761,40h88.478l10.459,45.434
	c1.44,6.258,5.798,11.442,11.713,13.939c12.895,5.443,25.139,12.509,36.389,21c5.117,3.863,11.775,5.039,17.905,3.16l44.792-13.717
	l44.194,76.346l-34.234,31.763C426.748,222.293,424.424,228.657,425.21,235.031z"/>
<g>
</g>
<g>
</g>
<g>
</g>
<g>
</g>
<g>
</g>
<g>
</g>
<g>
</g>
<g>
</g>
<g>
</g>
<g>
</g>
<g>
</g>
<g>
</g>
<g>
</g>
<g>
</g>
<g>
</g>
</svg>
